<?xml version="1.0" standalone="no"?>
<!DOCTYPE svg PUBLIC "-//W3C//DTD SVG 20010904//EN"
 "http://www.w3.org/TR/2001/REC-SVG-20010904/DTD/svg10.dtd">
<svg version="1.0" xmlns="http://www.w3.org/2000/svg"
 width="256.000000pt" height="256.000000pt" viewBox="0 0 256.000000 256.000000"
 preserveAspectRatio="xMidYMid meet">

<g transform="translate(0.000000,256.000000) scale(0.100000,-0.100000)"
fill="#000000" stroke="none">
<path d="M0 1280 l0 -1280 1280 0 1280 0 0 1280 0 1280 -1280 0 -1280 0 0
-1280z m1430 1025 c0 -23 4 -25 44 -25 24 0 64 -3 90 -6 39 -6 46 -10 46 -29
0 -20 7 -24 55 -30 50 -6 55 -9 55 -31 0 -20 5 -24 30 -24 27 0 30 -3 30 -29
0 -25 4 -30 28 -33 21 -2 28 -9 30 -30 3 -22 9 -28 28 -28 20 0 24 -5 24 -29
0 -25 4 -30 28 -33 26 -3 27 -6 30 -60 3 -54 5 -58 27 -58 l25 0 0 -375 0
-375 -25 0 c-24 0 -25 -2 -25 -65 0 -62 -1 -65 -24 -65 -21 0 -25 -6 -28 -32
-2 -28 -8 -34 -30 -36 -23 -3 -28 -8 -28 -30 0 -65 -12 -101 -34 -104 -16 -2
-22 -11 -24 -35 -3 -27 -8 -33 -27 -33 -21 0 -24 5 -30 65 -7 59 -9 64 -30 63
-21 -2 -24 -9 -30 -65 -6 -58 -8 -63 -31 -63 -23 0 -24 3 -24 59 0 58 -1 60
-27 63 -23 2 -29 8 -31 36 l-3 32 -62 -2 c-35 0 -48 -3 -29 -5 26 -4 32 -9 32
-29 l0 -24 -220 0 -220 0 0 30 c0 28 -3 30 -35 30 -33 0 -35 -2 -35 -35 0 -32
-3 -35 -28 -35 -22 0 -28 -5 -28 -22 -1 -89 -3 -98 -29 -98 -26 0 -26 -2 -30
100 -1 26 -29 40 -47 22 -5 -5 -9 -35 -9 -66 0 -55 -1 -56 -30 -56 -29 0 -29
0 -29 59 0 58 -1 60 -27 63 -24 3 -28 8 -31 41 -3 32 -7 37 -28 37 -21 0 -24
5 -24 35 0 32 -2 35 -30 35 l-30 0 0 65 c0 63 -1 65 -25 65 l-25 0 0 375 0
375 25 0 c24 0 25 3 25 60 l0 60 30 0 c27 0 30 3 30 30 0 25 4 30 24 30 19 0
25 6 28 28 2 21 9 28 31 30 23 3 27 8 27 33 0 26 3 29 30 29 27 0 30 3 30 30
0 30 1 30 54 30 52 0 55 1 58 28 3 27 3 27 91 30 85 3 87 3 87 27 l0 25 165 0
165 0 0 -25z m-950 -1066 c0 -57 -1 -60 -22 -57 -17 2 -24 11 -26 31 -3 24 -7
28 -30 25 -25 -3 -27 -7 -30 -55 l-3 -53 30 0 c29 0 31 -2 31 -40 0 -36 -2
-40 -25 -40 -21 0 -25 -5 -25 -30 0 -28 2 -30 40 -30 l40 0 0 62 c0 97 7 64
14 -64 l6 -118 -30 0 c-27 0 -30 3 -30 29 0 28 -2 30 -47 33 -55 3 -50 -11
-52 148 -1 100 -1 100 -26 100 -20 0 -25 5 -25 25 0 20 5 25 25 25 21 0 25 5
25 28 0 16 3 32 7 35 3 4 39 7 80 7 l73 0 0 -61z m1728 24 c3 -27 7 -33 28
-33 19 0 24 -5 24 -25 0 -20 -5 -25 -25 -25 l-24 0 -3 -122 -3 -123 -47 -3
c-46 -3 -48 -5 -48 -33 0 -26 -3 -29 -30 -29 -33 0 -33 2 -24 74 l7 46 43 0
c42 0 44 1 44 30 0 23 -4 30 -20 30 -16 0 -20 7 -20 30 0 17 0 33 0 38 0 4 11
8 25 10 23 3 25 7 25 58 0 54 -1 55 -27 52 -20 -2 -29 -10 -33 -28 -4 -15 -14
-26 -27 -28 -19 -3 -21 2 -21 49 -1 29 2 57 4 61 3 5 38 8 77 6 l72 -3 3 -32z
m-1501 -475 c-3 -7 -5 -2 -5 12 0 14 2 19 5 13 2 -7 2 -19 0 -25z m843 -123
c0 -32 -2 -35 -30 -35 l-30 0 0 -70 c0 -77 3 -74 -74 -64 l-46 7 0 63 0 64
-100 0 -100 0 0 -35 c0 -32 -2 -35 -29 -35 -26 0 -30 -4 -33 -32 -2 -26 -7
-32 -30 -32 -26 -2 -27 1 -33 66 -7 67 -8 68 -36 68 -26 0 -29 3 -29 35 l0 35
285 0 285 0 0 -35z m-250 -140 c0 -33 -2 -35 -35 -35 -33 0 -35 2 -35 35 0 33
2 35 35 35 33 0 35 -2 35 -35z m-140 0 c0 -20 -5 -25 -22 -24 -17 1 -19 2 -5
6 9 2 17 13 17 24 0 10 2 19 5 19 3 0 5 -11 5 -25z"/>
<path d="M710 1524 c-59 -42 -70 -56 -70 -86 0 -24 4 -28 30 -28 25 0 30 4 30
25 l0 25 200 0 c221 0 225 1 167 58 l-33 32 -144 -1 c-138 -1 -147 -2 -180
-25z"/>
<path d="M1468 1519 c-69 -56 -61 -59 167 -59 l205 0 0 -25 c0 -21 5 -25 30
-25 25 0 30 4 30 23 0 24 -30 57 -87 95 -28 20 -44 22 -170 22 l-138 -1 -37
-30z"/>
<path d="M750 1360 c0 -5 -13 -10 -30 -10 -27 0 -30 -3 -30 -30 0 -25 -4 -30
-25 -30 -25 0 -25 -1 -25 -91 l0 -90 28 3 c26 3 27 6 30 66 l3 62 44 0 c40 0
44 2 47 28 3 24 7 27 43 27 38 0 40 -2 43 -32 3 -33 3 -33 -42 -33 l-46 0 0
-54 c0 -38 7 -66 21 -90 l21 -36 89 0 c86 0 89 1 95 25 3 14 10 25 15 25 5 0
9 32 9 70 l0 70 30 0 c46 0 42 44 -8 93 l-38 37 -137 0 c-85 0 -137 -4 -137
-10z"/>
<path d="M1468 1333 c-29 -31 -35 -43 -31 -65 4 -21 11 -28 29 -28 17 0 23 6
26 28 3 26 6 27 61 30 l57 3 0 -35 0 -35 -57 -3 -58 -3 0 -55 c1 -30 7 -68 16
-85 14 -29 17 -30 89 -33 93 -4 120 3 120 27 0 11 4 21 9 23 5 2 11 32 14 68
l4 65 36 3 c30 3 37 8 39 25 1 12 4 -16 7 -63 l6 -85 30 0 30 0 3 87 3 87 -28
3 c-22 2 -29 9 -31 31 -3 21 -9 27 -27 27 -13 0 -27 5 -30 10 -4 6 -63 10
-144 10 l-137 0 -36 -37z"/>
<path d="M1185 900 c-19 -8 -19 -9 2 -9 13 -1 28 -10 35 -21 18 -28 68 -26 96
3 12 13 22 26 22 30 0 10 -131 7 -155 -3z"/>
<path d="M1068 893 c6 -2 18 -2 25 0 6 3 1 5 -13 5 -14 0 -19 -2 -12 -5z"/>
<path d="M1798 823 c7 -3 16 -2 19 1 4 3 -2 6 -13 5 -11 0 -14 -3 -6 -6z"/>
</g>
</svg>
